<svg id="Capa_1" enable-background="new 0 0 512.068 512.068" height="512" viewBox="0 0 512.068 512.068" width="512" xmlns="http://www.w3.org/2000/svg"><g><g><path d="m135.446 276.18h-63.912c-4.143 0-7.5 3.358-7.5 7.5s3.357 7.5 7.5 7.5h63.912c.626 0 1.135.509 1.135 1.135v167.996c0 .626-.509 1.135-1.135 1.135h-119.311c-.626 0-1.135-.509-1.135-1.135v-167.996c0-.625.509-1.135 1.135-1.135h20.399c4.143 0 7.5-3.358 7.5-7.5s-3.357-7.5-7.5-7.5h-20.399c-8.897 0-16.135 7.238-16.135 16.135v167.996c0 8.897 7.238 16.135 16.135 16.135h119.312c8.896 0 16.135-7.238 16.135-16.135v-167.996c-.001-8.897-7.239-16.135-16.136-16.135z"/><path d="m68.867 342.098h38.77c4.143 0 7.5-3.358 7.5-7.5s-3.357-7.5-7.5-7.5h-38.77c-4.143 0-7.5 3.358-7.5 7.5s3.358 7.5 7.5 7.5z"/><path d="m107.637 354.908h-63.694c-4.143 0-7.5 3.358-7.5 7.5s3.357 7.5 7.5 7.5h63.693c4.143 0 7.5-3.358 7.5-7.5s-3.357-7.5-7.499-7.5z"/><path d="m115.137 390.218c0-4.142-3.357-7.5-7.5-7.5h-63.694c-4.143 0-7.5 3.358-7.5 7.5s3.357 7.5 7.5 7.5h63.693c4.143 0 7.501-3.358 7.501-7.5z"/><path d="m43.943 410.528c-4.143 0-7.5 3.358-7.5 7.5s3.357 7.5 7.5 7.5h36.137c4.143 0 7.5-3.358 7.5-7.5s-3.357-7.5-7.5-7.5z"/></g><g><path d="m495.934 35.622h-272.029c-8.897 0-16.136 7.238-16.136 16.135v19.472h-22.76c-8.896 0-16.135 7.238-16.135 16.135v372.947c0 8.897 7.238 16.135 16.135 16.135h272.028c8.897 0 16.136-7.238 16.136-16.135v-19.472h22.76c8.896 0 16.135-7.238 16.135-16.135v-372.947c0-8.897-7.238-16.135-16.134-16.135zm1.134 389.082c0 .626-.509 1.135-1.135 1.135h-22.76v-50.139c0-4.142-3.357-7.5-7.5-7.5s-7.5 3.358-7.5 7.5v84.61c0 .626-.51 1.135-1.136 1.135h-272.027c-.626 0-1.135-.509-1.135-1.135v-372.946c0-.626.509-1.135 1.135-1.135h272.028c.626 0 1.136.509 1.136 1.135v253.295c0 4.142 3.357 7.5 7.5 7.5s7.5-3.358 7.5-7.5v-253.295c0-8.897-7.238-16.135-16.136-16.135h-234.268v-19.472c0-.626.51-1.135 1.136-1.135h272.028c.626 0 1.135.509 1.135 1.135v372.947z"/><path d="m428.767 238.958h-105.536c-4.143 0-7.5 3.358-7.5 7.5s3.357 7.5 7.5 7.5h105.535c4.143 0 7.5-3.358 7.5-7.5s-3.357-7.5-7.499-7.5z"/><path d="m428.767 269.996h-152.39c-4.143 0-7.5 3.358-7.5 7.5s3.357 7.5 7.5 7.5h152.39c4.143 0 7.5-3.358 7.5-7.5s-3.358-7.5-7.5-7.5z"/><path d="m428.767 301.034h-152.39c-4.143 0-7.5 3.358-7.5 7.5s3.357 7.5 7.5 7.5h152.39c4.143 0 7.5-3.358 7.5-7.5s-3.358-7.5-7.5-7.5z"/><path d="m428.767 332.072h-152.39c-4.143 0-7.5 3.358-7.5 7.5s3.357 7.5 7.5 7.5h152.39c4.143 0 7.5-3.358 7.5-7.5s-3.358-7.5-7.5-7.5z"/><path d="m331.855 363.11h-55.479c-4.143 0-7.5 3.358-7.5 7.5s3.357 7.5 7.5 7.5h55.479c4.143 0 7.5-3.358 7.5-7.5s-3.357-7.5-7.5-7.5z"/><path d="m238.034 106.785c-20.547 0-37.263 16.716-37.263 37.263s16.716 37.263 37.263 37.263 37.263-16.716 37.263-37.263-16.716-37.263-37.263-37.263zm0 59.527c-12.275 0-22.263-9.987-22.263-22.263s9.987-22.263 22.263-22.263 22.263 9.987 22.263 22.263-9.987 22.263-22.263 22.263z"/><path d="m238.034 203.534c-4.143 0-7.5 3.358-7.5 7.5v195c0 4.142 3.357 7.5 7.5 7.5s7.5-3.358 7.5-7.5v-195c0-4.142-3.357-7.5-7.5-7.5z"/></g></g></svg>